<svg viewBox="0 0 100 100" width="60" 
    height="60" xmlns="http://www.w3.org/2000/svg">
<path d="m90.7 17h-81.4c-1.7 0-3.1 1.4-3.1 3.1v50.5c0 1.7 1.4 3.1 3.1 3.1h81.3c1.7 0 3.1-1.4 3.1-3.1v-50.5c.1-1.7-1.3-3.1-3-3.1zm-40.7 54.7c-1.6 0-2.9-1.3-2.9-2.9s1.3-2.9 2.9-2.9 2.9 1.3 2.9 2.9-1.3 2.9-2.9 2.9zm38.6-10.2c0 1.7-1.4 3.1-3.1 3.1h-71c-1.7 0-3.1-1.4-3.1-3.1v-36.3c0-1.7 1.4-3.1 3.1-3.1h71c1.7 0 3.1 1.4 3.1 3.1z"/>
<path d="m60.5 76.2c-.3 1.9-2 3.4-4 3.4h-13c-2 0-3.7-1.5-4-3.4h-33.2c0 3.8 3 6.8 6.8 6.8h73.9c3.8 0 6.8-3 6.8-6.8z"/>
<path d="m28.5 61.5h-5.5c-2 0-3.6-1.6-3.6-3.6v-11.1c0-2 1.6-3.6 3.6-3.6h5.5c2 0 3.6 1.6 3.6 3.6v11.1c0 2-1.6 3.6-3.6 3.6z"/>
<path d="m49.7 61.5h-5.5c-2 0-3.6-1.6-3.6-3.6v-17.7c0-2 1.6-3.6 3.6-3.6h5.5c2 0 3.6 1.6 3.6 3.6v17.8c.1 1.9-1.6 3.5-3.6 3.5z"/>
<path d="m71.7 40.5-.6-.2c-3.1-1.1-4.2-1.6-4.2-3.5 0-1.1.4-2.5 3.6-2.5 1.5 0 3.2.5 4.9 1.6.5.5 1.2.6 1.8.2.4-.2.8-.5 1.1-1.1l.9-1.9c.5-.9 0-2.1-.7-2.6-1.5-1-3.3-1.7-5.4-2.1v-3.4h-5.6v3.3c-4.5.8-7.1 3.9-7.1 8.4 0 5.5 3.8 7.4 8.8 9.3l.3.2c3.5 1.3 4.6 1.8 4.6 3.2 0 2.6-2.9 2.9-4.1 2.9-1.9 0-3.7-.6-5.5-1.6-.3-.4-.7-.4-1-.4-.6 0-1.4.5-1.8 1.1l-1 1.9-.1.1-.1.2c-.3.8 0 1.7.8 2.2 1.7 1.1 4.1 1.9 6.3 2.2v3h5.6v-3c4.4-1.1 7.2-4.3 7.4-8.6-.1-5.8-4.6-7.4-8.9-8.9z"/>
</svg>